# xmcd CD database file
#
# Track frame offsets:
#	150
#	12559
#	26323
#	51947
#	65425
#	79084
#	91852
#	109809
#	136028
#	150144
#	165796
#	181319
#	194014
#	214357
#
# Disc length: 3047 seconds
#
# Revision: 1
# Processed by: cddbd v1.5.2PL0 Copyright (c) Steve Scherf et al.
# Submitted via: CDex 1.70beta2
#
DISCID=ab0be50e
DTITLE=The Magic Shook Heads - Old School Jazz
DYEAR=2010
DGENRE=Jazz
TTITLE0=In the middle of a kiss
TTITLE1=At the jazz band ball
TTITLE2=Hummin' to myself
TTITLE3=Sidewalk blues
TTITLE4=The Mooche
TTITLE5=Coney Island washboard
TTITLE6=Egyptian ella
TTITLE7=Mood Indigo
TTITLE8=Steamboat stomp
TTITLE9=East St Louis Toodle-oo
TTITLE10=Up a lazy ruiver
TTITLE11=You mother's son in law
TTITLE12=Tin roof blues
TTITLE13=Petite fleur-banjo solo
EXTD=YEAR: 2010
EXTT0=
EXTT1=
EXTT2=
EXTT3=
EXTT4=
EXTT5=
EXTT6=
EXTT7=
EXTT8=
EXTT9=
EXTT10=
EXTT11=
EXTT12=
EXTT13=
PLAYORDER=
